<svg height="480pt" viewBox="0 0 480 480" width="480pt" xmlns="http://www.w3.org/2000/svg"><path d="m96 448v-448h320v448" fill="#413e39"/><path d="m64 480v-448h240v80h80v368" fill="#a4bdca"/><path d="m288 368h192v112h-192zm0 0" fill="#db4841"/><path d="m288 368h96v112h-96zm0 0" fill="#ed5a54"/><path d="m408 424c0 13.253906-10.746094 24-24 24s-24-10.746094-24-24 10.746094-24 24-24 24 10.746094 24 24zm0 0" fill="#cfdfec"/><path d="m432 368v-48c0-26.511719-21.488281-48-48-48s-48 21.488281-48 48v48h-32v-48c0-44.183594 35.816406-80 80-80s80 35.816406 80 80v48zm0 0" fill="#dbb284"/><path d="m432 368v-48c0-26.511719-21.488281-48-48-48s-48 21.488281-48 48v48h-16v-48c0-35.34375 28.65625-64 64-64s64 28.65625 64 64v48zm0 0" fill="#fbe8d2"/><path d="m384 112-80-80v80zm0 0" fill="#4f738a"/><path d="m0 104h.96875c35.558594 0 69.992188-12.464844 97.304688-35.230469l5.726562-4.769531 5.71875 4.769531c27.320312 22.765625 61.753906 35.230469 97.3125 35.230469h.96875v134.078125c0 26.25-12.878906 50.832031-34.464844 65.777344l-69.535156 48.144531-69.535156-48.144531c-21.585938-14.933594-34.464844-39.519531-34.464844-65.777344zm0 0" fill="#375870"/><path d="m104 352-69.535156-48.144531c-21.585938-14.933594-34.464844-39.519531-34.464844-65.777344v-134.078125h.96875c35.558594 0 69.992188-12.464844 97.304688-35.230469l5.726562-4.769531" fill="#4f738a"/><path d="m176 208c0 39.765625-32.234375 72-72 72s-72-32.234375-72-72 32.234375-72 72-72 72 32.234375 72 72zm0 0" fill="#96be47"/><path d="m384 456c-17.648438 0-32-14.351562-32-32s14.351562-32 32-32 32 14.351562 32 32-14.351562 32-32 32zm0-48c-8.824219 0-16 7.175781-16 16s7.175781 16 16 16 16-7.175781 16-16-7.175781-16-16-16zm0 0" fill="#413e39"/><path d="m376 448h16v32h-16zm0 0" fill="#413e39"/><g fill="#cfdfec"><path d="m104 256c-2.105469 0-4.144531-.832031-5.65625-2.34375l-32-32 11.3125-11.3125 23.421875 23.425781 27.496094-68.738281 14.859375 5.9375-32 80c-1 2.496094-3.1875 4.328125-5.824219 4.863281-.539063.113281-1.082031.167969-1.609375.167969zm0 0"/><path d="m88 440h176v16h-176zm0 0"/><path d="m88 408h176v16h-176zm0 0"/><path d="m88 376h176v16h-176zm0 0"/><path d="m208 200h104v16h-104zm0 0"/><path d="m208 168h104v16h-104zm0 0"/><path d="m208 136h104v16h-104zm0 0"/></g></svg>