<svg id="Capa_1" enable-background="new 0 0 510 510" height="512" viewBox="0 0 510 510" width="512" xmlns="http://www.w3.org/2000/svg"><g><path d="m295 135v250h15v71.79c0 29.34-23.87 53.21-53.21 53.21h-96.79v-510h96.79c29.34 0 53.21 23.87 53.21 53.21v81.79z" fill="#2fc0f0"/><path d="m160 0v510h-96.79c-29.34 0-53.21-23.87-53.21-53.21v-66.79l42.011-135-42.011-135v-66.79c0-29.34 23.87-53.21 53.21-53.21z" fill="#9ee2f8"/><path d="m235 .038-30 50h-45v-50.038z" fill="#9ee2f8"/><path d="m160 0v50.038h-45l-30-50z" fill="#e7f9fb"/><path d="m160 435h30v30h-30z" fill="#9ee2f8"/><path d="m130 435h30v30h-30z" fill="#e7f9fb"/><path d="m160 120h340v270h-340z" fill="#e1ebf0"/><path d="m10 120h150v270h-150z" fill="#fff5f5"/><g fill="#09607d"><path d="m305 180h60v30h-60z"/><path d="m305 240h90v30h-90z"/><path d="m305 300h135v30h-135z"/></g><path d="m265.61 203.93-105.61 105.61v-42.42l84.39-84.4z" fill="#00aa63"/><path d="m160 267.12v42.42l-21.67 21.67-63.64-63.64 21.21-21.21 42.43 42.43z" fill="#00cc76"/></g></svg>