<svg id="Capa_1" enable-background="new 0 0 512 512" height="512" viewBox="0 0 512 512" width="512" xmlns="http://www.w3.org/2000/svg"><g><path d="m61.954 55.347v436.847c0 10.939 8.868 19.806 19.806 19.806h348.478c10.939 0 19.807-8.868 19.807-19.806v-436.847z" fill="#dfebfa"/><path d="m95.95 492.194v-436.847h-33.996v436.847c0 10.939 8.868 19.806 19.806 19.806h33.996c-10.938 0-19.806-8.868-19.806-19.806z" fill="#b1dbfc"/><path d="m430.239 0h-313.648v57.407h333.455v-37.601c0-10.939-8.869-19.806-19.807-19.806z" fill="#5cb3f8"/><path d="m118.651 0h-36.89c-10.939 0-19.807 8.867-19.807 19.806v37.601h56.696v-57.407z" fill="#ff656f"/><path d="m115.757 0h-33.996c-10.939 0-19.807 8.867-19.807 19.806v37.601h33.996v-37.601c0-10.939 8.868-19.806 19.807-19.806z" fill="#ff4756"/><g><g><path d="m411.669 36.43h-255.327c-4.267 0-7.726-3.459-7.726-7.726s3.459-7.726 7.726-7.726h255.327c4.267 0 7.726 3.459 7.726 7.726s-3.459 7.726-7.726 7.726z" fill="#8bcaff"/></g></g><path d="m256 89.013c-39.732 0-71.941 32.209-71.941 71.941 0 22.88 10.693 43.249 27.341 56.425v-18.264c0-13.434 10.044-24.426 22.319-24.426h44.561c12.276 0 22.319 10.992 22.319 24.426v18.264c16.647-13.176 27.341-33.546 27.341-56.425.001-39.732-32.208-71.941-71.94-71.941z" fill="#5cb3f8"/><g><g><g><path d="m216.252 160.954c0-34.195 23.866-62.797 55.844-70.11-5.178-1.184-10.56-1.83-16.096-1.83-39.732 0-71.941 32.209-71.941 71.941 0 22.88 10.693 43.249 27.341 56.425v-18.264c0-7.29 2.961-13.856 7.628-18.341-1.803-6.297-2.776-12.944-2.776-19.821z" fill="#0290f4"/></g></g></g><circle cx="256" cy="146.565" fill="#ffcebe" r="26.303"/><path d="m252.361 146.565c0-10.469 6.117-19.508 14.971-23.742-3.432-1.641-7.274-2.561-11.332-2.561-14.527 0-26.303 11.776-26.303 26.303s11.776 26.303 26.303 26.303c4.058 0 7.9-.92 11.332-2.561-8.854-4.234-14.971-13.273-14.971-23.742z" fill="#ffb1a0"/><path d="m278.978 172.868h-45.955c-12.66 0-23.018 10.358-23.018 23.018v20.378c12.47 10.381 28.501 16.631 45.995 16.631s33.525-6.249 45.995-16.631v-20.378c0-12.66-10.358-23.018-23.017-23.018z" fill="#ff656f"/><path d="m232.669 193.825c0-9.286 5.576-17.328 13.543-20.957h-13.189c-12.66 0-23.018 10.358-23.018 23.018v20.378c6.647 5.533 14.312 9.877 22.664 12.742z" fill="#ff4756"/><path d="m191.748 271.741h-76.448c-5.83 0-10.557 4.726-10.557 10.557v59.788c0 5.831 4.727 10.557 10.557 10.557h76.448c5.83 0 10.557-4.726 10.557-10.557v-59.788c0-5.831-4.726-10.557-10.557-10.557z" fill="#43cb8e"/><path d="m191.748 387.388h-76.448c-5.83 0-10.557 4.727-10.557 10.557v59.788c0 5.83 4.727 10.557 10.557 10.557h76.448c5.83 0 10.557-4.727 10.557-10.557v-59.788c0-5.831-4.726-10.557-10.557-10.557z" fill="#43cb8e"/><path d="m131.268 342.086v-59.788c0-5.831 4.726-10.557 10.557-10.557h-26.525c-5.83 0-10.557 4.726-10.557 10.557v59.788c0 5.831 4.727 10.557 10.557 10.557h26.525c-5.83 0-10.557-4.726-10.557-10.557z" fill="#00ba66"/><path d="m131.268 457.733v-59.788c0-5.83 4.726-10.557 10.557-10.557h-26.525c-5.83 0-10.557 4.727-10.557 10.557v59.788c0 5.83 4.727 10.557 10.557 10.557h26.525c-5.83 0-10.557-4.727-10.557-10.557z" fill="#00ba66"/><g><path d="m399.928 289.425h-161.297c-4.267 0-7.726-3.459-7.726-7.726s3.459-7.726 7.726-7.726h161.297c4.267 0 7.726 3.459 7.726 7.726s-3.459 7.726-7.726 7.726z" fill="#8479c2"/></g><g><g><path d="m399.928 319.918h-161.297c-4.267 0-7.726-3.459-7.726-7.726s3.459-7.726 7.726-7.726h161.297c4.267 0 7.726 3.459 7.726 7.726s-3.459 7.726-7.726 7.726z" fill="#b1dbfc"/></g></g><g><g><path d="m399.928 350.412h-161.297c-4.267 0-7.726-3.459-7.726-7.726s3.459-7.726 7.726-7.726h161.297c4.267 0 7.726 3.459 7.726 7.726 0 4.266-3.459 7.726-7.726 7.726z" fill="#b1dbfc"/></g></g><g><path d="m399.928 405.072h-161.297c-4.267 0-7.726-3.459-7.726-7.726s3.459-7.726 7.726-7.726h161.297c4.267 0 7.726 3.459 7.726 7.726s-3.459 7.726-7.726 7.726z" fill="#8479c2"/></g><g><g><path d="m399.928 435.565h-161.297c-4.267 0-7.726-3.459-7.726-7.726s3.459-7.726 7.726-7.726h161.297c4.267 0 7.726 3.459 7.726 7.726s-3.459 7.726-7.726 7.726z" fill="#b1dbfc"/></g></g><g><g><path d="m399.928 466.059h-161.297c-4.267 0-7.726-3.459-7.726-7.726s3.459-7.726 7.726-7.726h161.297c4.267 0 7.726 3.459 7.726 7.726s-3.459 7.726-7.726 7.726z" fill="#b1dbfc"/></g></g><g><path d="m150.394 329.264c-1.977 0-3.955-.755-5.463-2.263l-12.43-12.43c-3.018-3.017-3.018-7.909 0-10.927 3.017-3.017 7.909-3.017 10.927 0l6.966 6.966 13.227-13.227c3.017-3.017 7.909-3.017 10.927 0s3.018 7.909 0 10.927l-18.691 18.691c-1.508 1.508-3.486 2.263-5.463 2.263z" fill="#dfebfa"/></g><g><path d="m150.394 444.91c-1.977 0-3.955-.754-5.463-2.263l-12.43-12.429c-3.018-3.017-3.018-7.909 0-10.927 3.017-3.017 7.909-3.018 10.927 0l6.966 6.966 13.227-13.227c3.017-3.017 7.909-3.017 10.927 0s3.018 7.909 0 10.927l-18.691 18.691c-1.508 1.508-3.486 2.262-5.463 2.262z" fill="#dfebfa"/></g></g></svg>