<svg height="512" viewBox="0 0 64 64" width="512" xmlns="http://www.w3.org/2000/svg"><g id="Email-4" data-name="Email"><path d="m15 3-12 12v42h44v-54z" fill="#ffeb99"/><path d="m22 57h1v-22h24v-1h-25z" fill="#ffe477"/><path d="m15 14v-11l-12 12h11a1 1 0 0 0 1-1z" fill="#2488ff"/><path d="m43.334 50.807a2 2 0 0 1 -2.668 0l-3.136-2.807-14.53 13h38l-14.53-13z" fill="#ffa733"/><path d="m23 35 14.53 13 3.136 2.807a2 2 0 0 0 2.668 0l3.136-2.807 14.53-13z" fill="#ffb655"/><path d="m61 61v-26l-14.53 13z" fill="#ff9811"/><path d="m23 35v22 4l14.53-13z" fill="#ff9811"/><path d="m52 58h-25.647l-3.353 3h38l-5.035-4.5a5.969 5.969 0 0 1 -3.965 1.5z" fill="#ff9811"/><path d="m23 58v3l3.353-3z" fill="#ee8700"/><path d="m58 37.684v14.316a5.98 5.98 0 0 1 -2.035 4.5l5.035 4.5v-26z" fill="#ee8700"/><g fill="#ff5023"><path d="m9 22h31a1 1 0 0 0 0-2h-31a1 1 0 0 0 0 2z"/><path d="m9 28h31a1 1 0 0 0 0-2h-31a1 1 0 0 0 0 2z"/><path d="m19 32h-10a1 1 0 0 0 0 2h10a1 1 0 0 0 0-2z"/><path d="m19 38h-10a1 1 0 0 0 0 2h10a1 1 0 0 0 0-2z"/><path d="m19 44h-10a1 1 0 0 0 0 2h10a1 1 0 0 0 0-2z"/><path d="m19 50h-10a1 1 0 0 0 0 2h10a1 1 0 0 0 0-2z"/></g></g></svg>