<svg id="Layer_3" enable-background="new 0 0 64 64" height="512" viewBox="0 0 64 64" width="512" xmlns="http://www.w3.org/2000/svg"><path d="m42 42h3v-4.291c2.187-.415 4.217-1.268 5.991-2.476l3.03 3.03 4.243-4.243-3.03-3.03c1.207-1.774 2.06-3.804 2.476-5.991h4.29v-6h-4.291c-.415-2.187-1.268-4.217-2.476-5.991l3.03-3.03-4.243-4.243-3.03 3.03c-1.773-1.206-3.803-2.059-5.99-2.474v-4.291h-6v4.291c-1.69.321-3.286.903-4.743 1.708l.743.001h7z" fill="#666"/><path d="m42 10c6.627 0 12 5.373 12 12s-5.373 12-12 12z" fill="#fff"/><path d="m2 8h40v54h-40z" fill="#ccc"/><path d="m6 46h32v12h-32z" fill="#b7852f"/><path d="m6 46h29v12h-29z" fill="#f4b23e"/><path d="m6 32h32v14h-32z" fill="#b7852f"/><path d="m6 32h29v14h-29z" fill="#f4b23e"/><path d="m6 12h32v16h-32z" fill="#5396bb"/><path d="m6 12h29v16h-29z" fill="#6ec8fa"/><g fill="#fff"><path d="m9 15h26v2h-26z"/><path d="m9 19h26v2h-26z"/><path d="m9 23h26v2h-26z"/><path d="m10.707 42.707-1.414-1.414 2.293-2.293-2.293-2.293 1.414-1.414 3 3c.391.391.391 1.023 0 1.414z"/><path d="m19.293 42.707-3-3c-.391-.391-.391-1.023 0-1.414l3-3 1.414 1.414-2.293 2.293 2.293 2.293z"/><path d="m24.707 42.707-1.414-1.414 2.293-2.293-2.293-2.293 1.414-1.414 3 3c.391.391.391 1.023 0 1.414z"/><path d="m33.293 42.707-3-3c-.391-.391-.391-1.023 0-1.414l3-3 1.414 1.414-2.293 2.293 2.293 2.293z"/><path d="m6 45h32v2h-32z"/><path d="m9 49h26v2h-26z"/><path d="m9 53h26v2h-26z"/></g></svg>