<svg id="Capa_1" enable-background="new 0 0 510 510" height="512" viewBox="0 0 510 510" width="512" xmlns="http://www.w3.org/2000/svg" xmlns:xlink="http://www.w3.org/1999/xlink"><linearGradient id="lg1"><stop offset="0" stop-color="#ffe177"/><stop offset="1" stop-color="#fe9738"/></linearGradient><linearGradient id="SVGID_1_" gradientUnits="userSpaceOnUse" x1="120.598" x2="235.921" xlink:href="#lg1" y1="23.556" y2="300.954"/><linearGradient id="SVGID_2_" gradientUnits="userSpaceOnUse" x1="115.513" x2="289.564" xlink:href="#lg1" y1="172.615" y2="419.451"/><linearGradient id="lg2"><stop offset="0" stop-color="#fe9738" stop-opacity="0"/><stop offset="1" stop-color="#f46700"/></linearGradient><linearGradient id="SVGID_3_" gradientUnits="userSpaceOnUse" x1="216.816" x2="216.816" xlink:href="#lg2" y1="368.715" y2="465.752"/><linearGradient id="SVGID_4_" gradientUnits="userSpaceOnUse" x1="308.795" x2="185.061" xlink:href="#lg2" y1="279.853" y2="-14.525"/><linearGradient id="SVGID_5_" gradientUnits="userSpaceOnUse" x1="165.418" x2="202.818" y1="79.684" y2="149.429"><stop offset="0" stop-color="#eef5f6"/><stop offset="1" stop-color="#cbe5e8"/></linearGradient><linearGradient id="SVGID_6_" gradientUnits="userSpaceOnUse" x1="402.53" x2="350.709" xlink:href="#lg2" y1="409.198" y2="250.159"/><linearGradient id="SVGID_7_" gradientTransform="matrix(0 1 1 0 -900.401 900.401)" gradientUnits="userSpaceOnUse" x1="-696.903" x2="-603.437" y1="1244.479" y2="1337.945"><stop offset="0" stop-color="#c1e9af"/><stop offset="1" stop-color="#4fc123"/></linearGradient><g><g><g><path d="m404.825 453.622h-376.017c-15.91 0-28.808-12.898-28.808-28.808v-339.628c0-15.91 12.898-28.808 28.808-28.808h61.355l81.437 10 77.756-10h155.469c15.91 0 28.808 12.898 28.808 28.808v339.628c0 15.91-12.898 28.808-28.808 28.808z" fill="url(#SVGID_1_)"/><path d="m318.401 453.622h-289.593c-15.91 0-28.808-12.898-28.808-28.808v-339.628c0-15.91 12.898-28.808 28.808-28.808h80.069l62.263 10 67.28-10h79.982c15.91 0 28.808 12.898 28.808 28.808v339.628c-.001 15.91-12.898 28.808-28.809 28.808z" fill="url(#SVGID_2_)"/><path d="m0 273.194v151.62c0 15.91 12.898 28.808 28.808 28.808h376.017c15.91 0 28.808-12.898 28.808-28.808v-151.62z" fill="url(#SVGID_3_)"/></g><path d="m115.328 137.705 308.616 308.616c5.931-5.277 9.689-12.944 9.689-21.507v-173.225l-195.21-195.21-60.03 34.753-68.088 40.919c-.001 3.749 5.023 5.654 5.023 5.654z" fill="url(#SVGID_4_)"/><path d="m108.787 56.378v75.672c0 5.086 6.15 7.634 9.746 4.037 2.23-2.23 5.845-2.23 8.074 0 7.165 7.166 18.783 7.166 25.948 0 2.23-2.23 5.844-2.23 8.074 0 7.165 7.166 18.783 7.166 25.948 0 2.23-2.23 5.845-2.23 8.074 0 7.165 7.166 18.783 7.166 25.949 0 2.23-2.23 5.845-2.23 8.074 0 3.597 3.597 9.746 1.049 9.746-4.037v-75.672z" fill="url(#SVGID_5_)"/><g fill="#3e5959"><path d="m158.366 345.757h-105.625c-3.325 0-6.02-2.695-6.02-6.02v-8.209c0-3.325 2.695-6.02 6.02-6.02h105.625c3.325 0 6.02 2.695 6.02 6.02v8.209c0 3.325-2.695 6.02-6.02 6.02z"/><path d="m158.366 379.689h-105.625c-3.325 0-6.02-2.695-6.02-6.02v-8.209c0-3.325 2.695-6.02 6.02-6.02h105.625c3.325 0 6.02 2.695 6.02 6.02v8.209c0 3.324-2.695 6.02-6.02 6.02z"/><path d="m104.733 413.62h-51.992c-3.325 0-6.02-2.695-6.02-6.02v-8.209c0-3.325 2.695-6.02 6.02-6.02h51.991c3.325 0 6.02 2.695 6.02 6.02v8.209c.001 3.325-2.695 6.02-6.019 6.02z"/></g></g><path d="m433.633 424.634v-149.707h-149.707z" fill="url(#SVGID_6_)"/><path d="m502.389 230.289-100.186-66.123c-11.266-7.435-26.279.644-26.279 14.142v30.916h-80.972c-9.009 0-16.313 7.303-16.313 16.313v37.789c0 9.009 7.303 16.313 16.313 16.313h80.972v30.916c0 13.498 15.013 21.578 26.279 14.142l100.186-66.123c10.148-6.698 10.148-21.587 0-28.285z" fill="url(#SVGID_7_)"/></g></svg>