<svg id="Capa_1" enable-background="new 0 0 510 510" height="512" viewBox="0 0 510 510" width="512" xmlns="http://www.w3.org/2000/svg" xmlns:xlink="http://www.w3.org/1999/xlink"><linearGradient id="SVGID_1_" gradientUnits="userSpaceOnUse" x1="146.766" x2="399.958" y1="185.919" y2="439.112"><stop offset="0" stop-color="#7faef4"/><stop offset="1" stop-color="#4c8df1"/></linearGradient><linearGradient id="lg1"><stop offset="0" stop-color="#4c8df1" stop-opacity="0"/><stop offset="1" stop-color="#4256ac"/></linearGradient><linearGradient id="SVGID_2_" gradientUnits="userSpaceOnUse" x1="327.014" x2="261.395" xlink:href="#lg1" y1="318.063" y2="173.009"/><linearGradient id="SVGID_3_" gradientUnits="userSpaceOnUse" x1="266.087" x2="266.087" xlink:href="#lg1" y1="378.794" y2="453.548"/><linearGradient id="SVGID_4_" gradientUnits="userSpaceOnUse" x1="322.423" x2="78.725" xlink:href="#lg1" y1="381.637" y2="137.939"/><linearGradient id="SVGID_5_" gradientTransform="matrix(-.707 .707 .707 .707 1246.472 -1377.765)" gradientUnits="userSpaceOnUse" x1="1891.468" x2="1904.743" y1="480.543" y2="480.543"><stop offset="0" stop-color="#e3e5e4"/><stop offset="1" stop-color="#cbd0e4"/></linearGradient><linearGradient id="lg2"><stop offset="0" stop-color="#ebeff0"/><stop offset="1" stop-color="#e3e5e4"/></linearGradient><linearGradient id="SVGID_6_" gradientTransform="matrix(-.707 .707 .707 .707 1246.472 -1377.765)" gradientUnits="userSpaceOnUse" x1="1858.822" x2="1955.382" xlink:href="#lg2" y1="323.611" y2="420.171"/><linearGradient id="SVGID_7_" gradientTransform="matrix(.707 -.707 -.707 -.707 -2497.503 -1341.985)" gradientUnits="userSpaceOnUse" x1="742.058" x2="824.832" xlink:href="#lg2" y1="-3017.506" y2="-2934.732"/><linearGradient id="SVGID_8_" gradientTransform="matrix(-1 0 0 1 788.254 0)" gradientUnits="userSpaceOnUse" x1="484.285" x2="529.785" y1="332.163" y2="377.663"><stop offset="0" stop-color="#cbd0e4"/><stop offset="1" stop-color="#6a7d83"/></linearGradient><g><g><path d="m383.377 183.415h-34.712c-27.785-64.733-92.095-110.077-167.003-110.077-100.329 0-181.662 81.333-181.662 181.662 0 94.325 71.892 172.72 163.87 181.662h219.506c69.933 0 126.624-56.692 126.624-126.624s-56.691-126.623-126.623-126.623z" fill="url(#SVGID_1_)"/><path d="m383.377 183.415h-34.712c9.429 21.968 14.659 46.165 14.659 71.585 0 100.329-81.333 181.662-181.662 181.662h201.715c69.932 0 126.623-56.692 126.623-126.624s-56.691-126.623-126.623-126.623z" fill="url(#SVGID_2_)"/><path d="m30.935 356.41c29.512 43.774 77.582 74.87 132.936 80.251h219.506c53.564 0 99.359-33.259 117.862-80.251z" fill="url(#SVGID_3_)"/></g><path d="m383.377 436.662c38.973 0 73.827-17.612 97.054-45.305l-245.302-245.44c-40.988-40.988-105.447-38.988-146.436 2-40.989 40.989-42.98 105.439-1.992 146.428l142.319 142.317z" fill="url(#SVGID_4_)"/><g><path d="m254.046 325.517 12.257-12.256-31.266-31.266-12.256 12.257z" fill="url(#SVGID_5_)"/><g><path d="m86.702 294.344c40.988 40.988 107.439 40.997 148.428.008 40.988-40.988 40.988-107.447 0-148.436-40.988-40.988-107.447-40.988-148.436 0-40.989 40.989-40.981 107.439.008 148.428zm23.789-23.789c-27.851-27.851-27.843-72.999 0-100.842 27.851-27.851 72.991-27.851 100.842 0 27.843 27.843 27.851 72.991 0 100.842-27.843 27.843-73 27.843-100.842 0z" fill="url(#SVGID_6_)"/><path d="m224.527 156.502c-35.139-35.139-92.1-35.131-127.231 0-35.139 35.139-35.147 92.1-.008 127.239s92.108 35.139 127.247 0c35.131-35.13 35.131-92.1-.008-127.239zm-13.195 13.195c27.851 27.851 27.843 72.999 0 100.842-27.851 27.851-72.991 27.851-100.842 0-27.843-27.843-27.851-72.991 0-100.842 27.843-27.843 73-27.843 100.842 0z" fill="url(#SVGID_7_)"/></g><path d="m316.952 390.833 14.667-14.667c5.322-5.322 5.322-13.952 0-19.274l-52.379-52.379c-5.322-5.322-13.952-5.322-19.274 0l-14.667 14.667c-5.322 5.322-5.322 13.952 0 19.274l52.379 52.379c5.322 5.323 13.952 5.323 19.274 0z" fill="url(#SVGID_8_)"/></g></g></svg>