<?xml version="1.0" encoding="iso-8859-1"?>
<!-- Generator: Adobe Illustrator 19.0.0, SVG Export Plug-In . SVG Version: 6.00 Build 0)  -->
<svg version="1.1" id="Capa_1" xmlns="http://www.w3.org/2000/svg" xmlns:xlink="http://www.w3.org/1999/xlink" x="0px" y="0px"
	 viewBox="0 0 512 512" style="enable-background:new 0 0 512 512;" xml:space="preserve">
<path style="fill:#ECF0F1;" d="M483.31,512H28.69C12.844,512,0,499.156,0,483.31V105.931h512V483.31
	C512,499.156,499.156,512,483.31,512z"/>
<path style="fill:#687492;" d="M512,105.931H0V28.69C0,12.844,12.844,0,28.69,0H483.31C499.156,0,512,12.844,512,28.69V105.931z"/>
<rect x="35.31" y="35.31" style="fill:#E64C3C;" width="35.31" height="35.31"/>
<rect x="105.931" y="35.31" style="fill:#F0C419;" width="35.31" height="35.31"/>
<rect x="176.552" y="35.31" style="fill:#24AE5F;" width="35.31" height="35.31"/>
<path style="fill:#BDC3C7;" d="M423.724,512H88.276V341.689c0-13.197,10.699-23.896,23.896-23.896h287.656
	c13.197,0,23.896,10.699,23.896,23.896V512z"/>
<path style="fill:#E64C3C;" d="M317.793,273.655H194.207c-9.754,0-17.655-7.901-17.655-17.655l0,0
	c0-9.754,7.901-17.655,17.655-17.655h123.586c9.754,0,17.655,7.901,17.655,17.655l0,0
	C335.448,265.754,327.548,273.655,317.793,273.655z"/>
<g>
	<path style="fill:#BDC3C7;" d="M344.276,167.724H167.724c-4.873,0-8.828-3.946-8.828-8.828c0-4.882,3.955-8.828,8.828-8.828
		h176.552c4.873,0,8.828,3.946,8.828,8.828C353.103,163.778,349.149,167.724,344.276,167.724z"/>
	<path style="fill:#BDC3C7;" d="M388.414,203.034H123.586c-4.873,0-8.828-3.946-8.828-8.828s3.955-8.828,8.828-8.828h264.828
		c4.873,0,8.828,3.946,8.828,8.828S393.287,203.034,388.414,203.034z"/>
</g>
<rect x="123.586" y="353.103" style="fill:#8697CB;" width="264.828" height="158.897"/>
<path style="fill:#FFFFFF;" d="M341.689,443.966l-44.138-44.138c-3.443-3.452-9.039-3.452-12.482,0l-37.897,37.897l-20.242-20.242
	c-3.443-3.452-9.039-3.452-12.482,0l-44.138,44.138c-3.452,3.452-3.452,9.031,0,12.482c1.721,1.721,3.981,2.586,6.241,2.586
	c2.26,0,4.52-0.865,6.241-2.586l37.897-37.897l37.897,37.897c1.721,1.721,3.981,2.586,6.241,2.586c2.26,0,4.52-0.865,6.241-2.586
	c3.452-3.452,3.452-9.031,0-12.482l-11.414-11.414l31.656-31.656l37.897,37.897c1.721,1.721,3.981,2.586,6.241,2.586
	s4.52-0.865,6.241-2.586C345.141,452.996,345.141,447.417,341.689,443.966z"/>
<g>
</g>
<g>
</g>
<g>
</g>
<g>
</g>
<g>
</g>
<g>
</g>
<g>
</g>
<g>
</g>
<g>
</g>
<g>
</g>
<g>
</g>
<g>
</g>
<g>
</g>
<g>
</g>
<g>
</g>
</svg>
